<svg xmlns="http://www.w3.org/2000/svg" version="1.1" xmlns:xlink="http://www.w3.org/1999/xlink" width="1500" height="355" viewBox="0 0 1500 355"><svg xml:space="preserve" width="1500" height="355" data-version="2" data-id="lg_7Q4JsqnYj3ns9Yr5c1" viewBox="0 0 571 355" x="0" y="0"><rect width="100%" height="100%" fill="transparent"></rect><path fill="none" stroke="#403e39" stroke-width="3" d="M459.757 92.484c-14.97-2.988-29.525 6.721-32.513 21.69-2.988 14.97 6.721 29.525 21.69 32.513l-54.886 88.375-.121.194-14.56 32.185-19.95-37.533-.862-1.581-3.403-6.4-3.497-1.512q-1.052-.792-2.19-1.503a27.648 27.648 0 1 0-21.233-49.37 27.677 27.677 0 0 0-47.527-1.099q-.469.75-.865 1.546a27.62 27.62 0 1 0 1.514 53.736 27.534 27.534 0 0 0 25.977 22.288 27.648 27.648 0 0 0 54.36 2.172l12.442 30.755-15.002 28.477 7.404 4.627 29.286-73.25.529-.847 13.555-8.016a27.62 27.62 0 0 0 41.075 26.609c12.212 9.155 29.53 6.676 38.686-5.536 9.155-12.212 6.677-29.53-5.536-38.686a27.62 27.62 0 1 0-53.84-6.558 27.392 27.392 0 0 0-19.702 20.224l-10.416 5.738 52.473-84.566a27.677 27.677 0 0 0 21.89-8.326 27.62 27.62 0 1 0-14.763-46.37" vector-effect="non-scaling-stroke"></path><path fill="none" stroke="#403e39" stroke-width="3" d="m237.724 300.591-18.087-43.727-3.212-7.657a18.908 18.908 0 0 1 .32-5.778q.513-2.146 1.261-4.392a62.128 62.128 0 0 0 1.276-4.647 75.634 75.634 0 0 0 1.86-14.196l.003-.427c1.726-1.43 2.691-2.996 5.296-3.843 2.959-.929 14.229-1.248 19.964-9.203 5.772-7.961 11.113-13.752 7.306-29.508-2.824-11.508-6.952-18.751-14.864-29.633-7.28-10.043-6.061-16.775-5.118-21.324.944-4.55-1.513-2.643-3.098 1.128-1.585 3.77-7.993 14.617-13.315 18.64-5.323 4.022-15.313 11.602-17.383 14.934-2.07 3.333-.843 4.455-2.614 6.513-1.77 2.057-2.413 7.213-2.734 8.802-.3 1.604-2.173 15.065 3.206 20.711 5.347 5.69 3.562 6.781 6.135 9.275 2.558 2.517 7.098 3.19 9.683 4.868 1.905 1.235 4.88 4.473 6.173 6.96a48.622 48.622 0 0 1-.707 6.661 72.932 72.932 0 0 1-3.53 13.423q-.858 2.169-1.558 4.58l-.097.328-12.408-29.891q-9.123-21.821-18.125-43.721l-1.083-2.738-.554-1.376-.502-1.308a27.012 27.012 0 0 0-.316-3.222q-.26-1.7-.375-3.231a16.207 16.207 0 0 1 .202-3.915l.077-.44.058-.553a10.805 10.805 0 0 0-.022-1.994 18.908 18.908 0 0 0-.856-3.534q-.569-1.684-1.274-3.267-.94-2.142-2.047-4.235a10.805 10.805 0 0 0 .908-3.322c.286-2.669 1.906-3.71 3.759-6.403 1.852-2.693 3.696-9.613 4.035-12.97a45.92 45.92 0 0 0-1.834-14.475 62.128 62.128 0 0 0-8.549-13.504c-3.503-3.805-8.479-6.728-12.661-7.678a24.31 24.31 0 0 1-8.495-3.08c-3.248-1.813-6.29-.578-9.398-2.26-3.109-1.683-8.873-3.905-10.355-9.23-1.526-5.355-3.224-3.873-2.73-2.175.486 1.66 1.264 10.91 1.865 13.441.602 2.532 1.373 8.117-.278 11.512-1.651 3.394-1.953 9.382-2.37 15.158a35.116 35.116 0 0 0 2.275 15.212c1.759 5.023 7.662 9.684 9.09 9.53 1.427-.155 3.772 1.157 5.531 2.554 1.76 1.397 4.992 2.902 8.002 2.7 3.01-.2 4.66 1.351 8.873 1.268 3.298 0 7.37 1.862 9.969 3.518a56.725 56.725 0 0 1 3.307 8.416q.436 1.591.566 3.1.042.788-.018 1.439l-.343 1.573a18.908 18.908 0 0 0-.249 5.63l-.734-.647-4.558-3.85q-2.341-1.838-4.463-3.752l-.529-.47-.263-.283-.133-.093-.19-.199q-.788-.618-1.514-.994-1.482-.708-2.932-1.228-2.93-.997-5.83-1.61a108.048 108.048 0 0 0-11.21-1.98 8.104 8.104 0 0 1-1-1.492c-1.375-2.511-2.88-10.392-12.16-19.462-9.28-9.07-20.922-10.197-26.574-9.143-5.652 1.055-23.923 9.3-29.035 11.326-5.112 2.027-10.489-3.057-10.358-1.548.13 1.51 1.495 2.762 3.4 4.986 1.92 2.202 5.041 1.75 7.502 3.274 2.454 1.488 5.54 4.803 7.985 7.34 2.445 2.536 5.69 8.732 12.27 15.253 6.581 6.52 17.56 5.864 20.578 5.603 3.018-.26 8-2.147 9.458-2.676 1.414-.56 5.847-2.37 9.454-5.779 3.01-2.839 5.602-4.42 8.486-5.666a162.072 162.072 0 0 1 10.577 2.46q2.83.762 5.49 1.767a18.908 18.908 0 0 1 2.491 1.15l.996.698.124.153.241.268.564.56q2.224 2.051 4.466 3.983 2.279 1.926 4.407 3.878a48.622 48.622 0 0 1 2.945 2.952l.268.419.029.053.09.294q.237.792.529 1.458l.515 1.384 1.09 2.775q8.64 22.042 17.421 44.02l1.22 3.062a45.92 45.92 0 0 0-4.048-2.933l-1.85-1.031-7.297-3.66-4.15-2.08a10.805 10.805 0 0 1-1.06-2.722c-.675-2.945.74-11.418 1.776-16.43.999-5.006-3.384-12.592-7.38-16.116-3.98-3.545-11.928-8.583-16.354-9.704-4.47-1.15-11.011-3.489-22.806-.536-11.796 2.953-16.633 2.797-22.333 2.037-5.7-.76-14.899-7.167-12.766-3.432 2.133 3.736 9.492 10.604 11.249 13.087 1.734 2.468 2.895 5.754 5.784 13.778 2.898 7.965 3.45 14.617 7.21 20.975 3.758 6.358 9.868 6.91 11.147 8.993 1.294 2.06 6.82 5.566 13.706 5.904 6.893.375 16.434-5.904 19.328-8.626 2.895-2.721 10.455-4.617 12.62-5.212l3.128 1.795q3.551 1.992 7.025 4.095c2.242 1.273 4.227 2.96 6.125 4.816q2.044 2.025 3.845 4.21l13.537 33.649 2.942 7.336q-2.348-1.545-4.773-2.65l-2.73-1.186-.691-.285-.356-.15-.394-.145q-.706-.263-1.458-.46-2.875-.793-5.745-1.45l-5.742-1.218-2.895-.576c.769-2.793-5.254-10.769-5.362-12.263-.108-1.493-3.482-5.67-4.177-8.068-.71-2.377-8.782-7.238-10.88-9.234-2.135-1.99-6.718-3.121-13.985-3.198-7.304-.07-21.696 5.65-27.66 10.541-5.927 4.885-12.972 11.79-16.529 17.907-3.557 6.116-7.968 10.908-11.053 11.782-3.1.896-11.994.505-12.388 1.02-.394.516 2.901 2.922 5.787 3.228a102.646 102.646 0 0 1 13.033 3.52c2.328.773 4.448 2.785 6.173 4.653 1.748 1.883 5.632 5.097 8.453 7.567 2.836 2.448 6.045 5.024 9.074 6.255 3.03 1.23 9.949 5.053 12.06 5.146 2.142.05 10.061 2.066 13.299 2.058 3.222.014 8.513-.997 9.859-2.495 1.368-1.482 2.649-1.475 4.453-3.015 1.803-1.54 8.72-7.415 11.561-10.767 2.842-3.352 4.545-10.305 4.665-13.914a21.61 21.61 0 0 1 2.798-9.318l3.308.832 5.654 1.486a72.932 72.932 0 0 1 6.86 2.165l.296.142.297.142.675.307 2.593 1.289a32.414 32.414 0 0 1 4.758 3q2.07 1.517 3.637 3.471l12.344 30.407.044.031a2.62 2.62 0 0 0 3.392 1.42 2.701 2.701 0 0 0 1.413-3.43m-59.918-135.77" vector-effect="non-scaling-stroke"></path><path fill="none" stroke="#403e39" stroke-width="3" d="M363.843 184.046c-13.843 5.862-25.896 14.338-38.253 22.98-6.605 4.623-13.815 8.806-19.264 14.833a22.016 22.016 0 0 0-3.275 5.118q-.165-2.642-.412-5.311.77-.165 1.376-.716.633-.605 1.073-1.238c2.614-.826 4.816-3.88 6.687-5.917q2.807-3.082 5.367-6.467c9.136-11.971 16.044-26.172 23.116-39.189q6.935-12.714 12.77-25.978 2.89-6.578 5.421-13.265c.826-2.174 4.348-8.834 4.348-12.357-4.76 2.863-8.806 7.156-12.88 10.678a148.608 148.608 0 0 0-19.896 21.493 93.568 93.568 0 0 0-8.366 13.293c3.908-12.825 7.843-25.814 10.568-38.914 1.843-8.889 2.614-17.475 4.238-26.364 1.155-6.467 3.385-16.484 2.311-23.062-2.339 1.541-2.862 4.128-4.183 6.44a388.032 388.032 0 0 0-27.575 58.728 233.92 233.92 0 0 0-6.632 20.805 674.24 674.24 0 0 0-6.522-40.73c-1.596-8.366-2.67-16.594-4.624-24.85-1.65-6.963-4.706-14.31-5.146-21.521-2.724 6.275-.826 16.347-1.1 23.31-.826 18.713-2.615 37.51-2.037 56.14.165 5.642.825 11.696 1.926 17.613-4.733-9.274-9.357-18.548-15.356-27.135-4.54-6.55-3.633-7.65-9.274-13.017-4.871-4.678-10.54-15.879-15.246-20.75 0 6.798 1.32 12.935 3.054 17.97 6.88 19.705 12.632 39.85 22.897 58.206 4.651 8.256 9.742 16.457 16.017 23.502 2.421 2.697 10.045 11.833 15.466 13.21l-.028 1.21-.275 5.945c-2.477-4.844-6.522-9.66-8.42-12.11-4.872-6.246-11.394-11.282-16.898-16.869a151.36 151.36 0 0 0-17.888-15.962c-6.055-4.403-12.824-7.98-18.549-12.851-5.09-4.349-9.467-10.293-13.732-15.219.358 4.21 2.78 7.98 4.788 11.751 4.293 8.146 7.706 15.026 13.705 22.016 6.605 7.706 11.394 16.897 19.264 23.254 7.43 5.972 13.403 13.458 20.448 20.035 3.137 2.945 11.75 10.815 16.732 7.87q-.33 6.413-1.101 12.853l-.055.577a23.667 23.667 0 0 0-6.192-9.136c-5.834-4.679-13.402-6.825-20.007-10.183-11.751-5.944-25.043-10.65-37.978-10.1 11.917 1.817 23.255 16.87 32.281 24.163 7.348 5.944 15.687 13.21 24.988 15.687a9.632 9.632 0 0 0 5.34.275c-2.698 15.769-7.431 31.648-16.788 44.61-2.091 2.917-4.788 5.366-6.77 8.338-.99 1.459.88 3.027 2.284 2.284 3.578-1.899 6.22-5.641 8.477-8.889 2.586-3.687 4.678-7.678 6.577-11.75 4.128-9.082 6.962-18.714 8.971-28.484q1.019-5.091 1.762-10.21c4.953 3.578 16.677-4.953 20.475-7.788 6.824-5.009 15.08-11.586 23.171-13.265-9.467-1.788-17.64 3.963-25.758 7.32-1.762.744-11.559 2.56-16.898 5.642q.66-6.44.909-12.907c1.183.716 2.862 1.074 5.173.826 7.706-.743 14.586-8.531 20.283-13.154a154.112 154.112 0 0 0 12.851-11.421q3.798-3.798 7.156-7.954c7.072-8.75 11.696-19.07 20.722-26.226-1.816.825-3.715 1.486-5.641 2.284" vector-effect="non-scaling-stroke"></path><path fill="#fafaf3" d="M256.518 126.56q6.786 1.854 11.11 7.3 4.316 5.453 4.316 11.522 0 6.061-2.26 8.53l-1.644-1.23q1.231-2.883 1.231-6.786 0-8.64-6.887-13.883-6.894-5.25-17.59-5.25h-2.463l-25.919 1.44v61.087h25.506q14.81 0 14.81-8.43 0-2.266-1.028-4.323l2.057-1.028q1.643 2.056 1.643 5.656t-2.78 6.271q-2.774 2.68-6.685 3.295 8.024 2.672 9.668 15.216l-2.47.622q-1.433-8.024-4.728-11.42-3.288-3.39-10.697-3.39h-25.296v58.82q17.28 8.843 31.575 8.843 14.289 0 19.945-4.52 5.656-4.526 5.656-16.048 0-3.7-1.029-6.785l2.267-1.029q1.441 3.498 1.441 7.814 0 12.34-6.38 17.692-6.373 5.345-19.539 5.345-19.126 0-36.811-9.668V125.944l30.228-1.644q21.393-.825 37.021-8.227 8.227-3.91 12.963-10.797 4.73-6.895 4.73-16.353l2.469.203q0 16.454-12.34 25.195t-32.09 11.21q-1.441 0-4.729-.202v.405q2.882.413 4.73.826m-48.333 8.227V237.21q0 12.34-4.526 18.41-4.52 6.068-15.426 6.068-5.547 0-9.255-1.238l.413-2.057q4.526 1.029 8.227 1.029 10.283 0 13.984-5.345 3.708-5.345 3.708-16.867V134.787q0-11.515-3.708-16.867-3.7-5.344-13.984-5.344-3.7 0-8.227 1.028l-.413-2.057q3.708-1.238 9.255-1.238 10.907 0 15.426 6.069 4.526 6.068 4.526 18.409"></path><rect width="168.42" height="238.84" x="-84.21" y="-119.42" fill="none" rx="0" ry="0" transform="translate(240.32 175.77)scale(.7242)"></rect><path fill="#fafaf3" d="M348.658 237.008V125.53q2.057-.202 7.409-.412 5.344-.203 15.324-.616 9.972-.413 19.025-2.368 9.045-1.948 17.272-5.859 8.227-3.91 12.956-10.798 4.736-6.887 4.736-16.352l2.462.21q0 16.454-12.34 25.195t-32.082 11.203q-1.441 0-4.73-.203v.413q2.876.413 4.73.819 6.785 1.854 11.109 7.307 4.316 5.446 4.316 11.515t-2.26 8.538l-1.65-1.239q1.238-2.672 1.238-6.785 0-8.64-6.894-13.883-6.888-5.243-17.584-5.243h-2.47l-17.685.818v109.217q0 11.514 3.701 16.866 3.7 5.345 13.984 5.345 3.708 0 8.227-1.029l.413 2.057q-3.7 1.231-9.255 1.231-10.9 0-15.426-6.061-4.526-6.07-4.526-18.41m-8.227-109.217-24.883-1.231q-23.855 0-23.855 18.51 0 6.786 3.49 11.312 3.498 4.527 9.466 4.527 5.96 0 9.356-3.498 3.397-3.498 3.397-9.256 0-2.056-.623-4.113l2.267-.826q1.028 2.47 1.028 4.94 0 6.785-4.113 11-4.114 4.222-11.211 4.222t-11.515-5.25q-4.425-5.244-4.425-13.26 0-20.778 27.563-20.778 11.102 0 26.94 1.441v111.477q0 12.34-4.526 18.409-4.526 6.061-15.425 6.061-5.555 0-9.255-1.23l.412-2.058q4.527 1.029 8.227 1.029 10.284 0 13.985-5.345 3.7-5.352 3.7-16.866Z"></path><rect width="191.98" height="237.99" x="-95.99" y="-119" fill="none" rx="0" ry="0" transform="translate(358.69 175.66)scale(.7242)"></rect><rect width="427.8" height="321.88" x="-213.9" y="-160.94" fill="none" rx="0" ry="0" transform="translate(287.94 194.97)scale(.7242)"></rect><path fill="#fafaf3" d="M177.85 294.73q-.66 0-1.01.1-.35.11-.6.39-.24.17-.47.56-.23.38-.26.7l-1.86-.18q.28-1.61 1.3-2.62.63-.46 1.34-.67.72-.21 1.77-.24h14.88l-.25 1.96h-12.84l-1.09 8.33h8.75l-.24 1.96h-8.79l-1.26 9.73h12.81l-.24 1.96h-14.88z"></path><rect width="19.29" height="23.94" x="-9.64" y="-11.97" fill="none" rx="0" ry="0" transform="translate(183.8 305.24)"></rect><path fill="#fafaf3" d="m200.18 306.42 5.22-7.21h2.27l-6.37 8.68 3.05 6.65q.14.24.29.38.16.14.51.14.6 0 .95-.49l1.54 1.16q-.53.63-1.19.98-.67.35-1.37.35-.77 0-1.4-.39-.63-.38-.98-1.15l-2.87-6.02-5.35 7.21h-2.24l6.54-8.75-4.27-8.75h2.24Z"></path><rect width="15.43" height="17.85" x="-7.71" y="-8.93" fill="none" rx="0" ry="0" transform="translate(200.46 308.63)"></rect><path fill="#fafaf3" d="M219.57 298.93q3.08 0 4.71 2.03t1.63 5.25q0 .59-.14 1.78-.53 4.06-3.03 6.57-2.5 2.5-6.35 2.5-.95 0-4.03-.46l-1.26 9.21h-1.92l2.83-21.49q.11-.7.11-1.26 0-1.79-.98-2.77l1.47-1.33q.52.42.96 1.16.44.73.58 1.57 1.78-2.76 5.42-2.76m-3.29 16.24q3.22 0 5.13-1.94 1.91-1.95 2.33-5.27.1-.84.1-1.61 0-2.49-1.08-4.01-1.09-1.52-3.15-1.52-2 0-3.7 1.26-1.69 1.26-2.11 3.22l-1.3 9.55q3.08.32 3.78.32"></path><rect width="16.73" height="26.88" x="-8.37" y="-13.44" fill="none" rx="0" ry="0" transform="translate(218.04 312.87)"></rect><path fill="#fafaf3" d="M235.53 317.06q-3.39 0-5.18-1.91-1.78-1.91-1.78-5.06 0-.77.1-1.54.32-2.38 1.45-4.58 1.14-2.21 3.07-3.62 1.92-1.42 4.41-1.42 2.38 0 3.97 1.29 1.59 1.3 1.59 3.47 0 2.9-2.34 4.48-2.35 1.57-6.37 1.54l-3.78.03q-.07 2.66 1.17 4.05 1.24 1.38 3.73 1.38 1.57 0 2.94-.46 1.36-.45 2.73-1.36l.91 1.47q-1.44 1.05-3.15 1.64-1.72.6-3.47.6m-.49-9.17q2.59 0 4.22-.89 1.63-.9 1.87-2.82.04-.18.04-.56 0-1.44-1-2.12-1-.68-2.54-.68-1.92 0-3.41 1.14-1.49 1.13-2.36 2.8-.88 1.66-1.05 3.2z"></path><rect width="14.59" height="18.13" x="-7.29" y="-9.06" fill="none" rx="0" ry="0" transform="translate(236.37 308.5)"></rect><path fill="#fafaf3" d="M262.9 315.52q-.31.56-1.03.96-.72.4-1.52.4-1.4 0-2.19-.91t-.61-2.31l1.15-8.78q.07-.7.07-1.05 0-3.08-3.11-3.08-1.75 0-3.12.91-1.36.91-2.87 2.69l-1.68 12.36h-2.03l1.65-12.36q.07-.84.07-1.15 0-1.86-.95-2.87l1.47-1.33q.56.42 1.02 1.21.45.78.56 1.69 1.33-1.61 2.83-2.32 1.51-.72 3.29-.72 2.49 0 3.8 1.33 1.31 1.33 1.14 3.92l-1.3 9.73q-.03.49.21.79.25.29.63.29.35 0 .67-.17.31-.18.49-.46Z"></path><rect width="16.94" height="18.02" x="-8.47" y="-9.01" fill="none" rx="0" ry="0" transform="translate(254.93 308.37)"></rect><path fill="#fafaf3" d="M270.6 317.13q-1.89 0-3.36-.74-1.47-.73-2.73-2.03l1.26-1.33q1.12 1.05 2.29 1.63 1.18.58 2.65.58 2.03 0 3.25-1.07 1.23-1.07 1.23-2.85 0-.77-.42-1.28t-1.07-.84q-.65-.33-2.36-1.14-1.58-.7-2.47-1.2-.89-.51-1.42-1.25-.52-.73-.52-1.78 0-.42.03-.63.25-2.03 1.8-3.24 1.56-1.21 3.91-1.21 1.26 0 2.43.37 1.17.37 1.94 1.03l-.98 1.44q-1.33-.95-3.36-.95-1.75 0-2.73.77t-.98 2.14q0 .7.42 1.17t1 .77q.58.3 2.15 1.03 2.49 1.09 3.59 2.05 1.1.96 1.1 2.61 0 .49-.03.73-.32 2.38-2.12 3.8t-4.5 1.42"></path><rect width="12.74" height="18.38" x="-6.37" y="-9.19" fill="none" rx="0" ry="0" transform="translate(271.38 308.44)"></rect><path fill="#fafaf3" d="M287.33 317.06q-3.39 0-5.18-1.91-1.78-1.91-1.78-5.06 0-.77.1-1.54.32-2.38 1.45-4.58 1.14-2.21 3.07-3.62 1.92-1.42 4.41-1.42 2.38 0 3.97 1.29 1.59 1.3 1.59 3.47 0 2.9-2.34 4.48-2.35 1.57-6.37 1.54l-3.78.03q-.07 2.66 1.17 4.05 1.24 1.38 3.73 1.38 1.57 0 2.94-.46 1.36-.45 2.73-1.36l.91 1.47q-1.44 1.05-3.15 1.64-1.72.6-3.47.6m-.49-9.17q2.59 0 4.22-.89 1.63-.9 1.87-2.82.04-.18.04-.56 0-1.44-1-2.12-1-.68-2.54-.68-1.92 0-3.41 1.14-1.49 1.13-2.36 2.8-.88 1.66-1.05 3.2z"></path><rect width="14.59" height="18.13" x="-7.29" y="-9.06" fill="none" rx="0" ry="0" transform="translate(288.17 308.5)"></rect><path fill="#fafaf3" d="M311.9 294.73q-.52 0-.91.4-.38.4-.45.86l-1.93-.14q.14-1.23 1.12-2.21 1.05-.87 2.24-.87h15.44l-.28 1.96h-7.95l-2.9 21.98h-2.03l2.9-21.98Z"></path><rect width="18.8" height="23.94" x="-9.4" y="-11.97" fill="none" rx="0" ry="0" transform="translate(318.51 305.24)"></rect><path fill="#fafaf3" d="M334.76 298.86q1.05 0 2.06.31l-.17 1.96q-.95-.24-1.89-.24-1.79 0-2.94.94-1.3.81-2.31 2.45l-1.68 12.43h-2.03l1.61-12.32q.1-.7.1-1.26 0-1.79-.98-2.77l1.51-1.33q.56.39.99 1.18.44.78.55 1.66 1.19-1.65 2.17-2.28 1.29-.73 3.01-.73"></path><rect width="11.02" height="17.85" x="-5.51" y="-8.93" fill="none" rx="0" ry="0" transform="translate(331.81 308.29)"></rect><path fill="#fafaf3" d="M343.54 317.06q-3.08 0-4.72-2.08-1.65-2.09-1.65-5.31 0-.84.11-1.68.35-2.66 1.62-4.72 1.28-2.07 3.31-3.2 2.03-1.14 4.55-1.14 1.89 0 4.1.31h2.06l-1.89 14.53q-.03.14-.03.35 0 1.01.87 1.01.67 0 1.12-.63l1.37 1.26q-.63.74-1.28 1.02t-1.42.28q-1.22 0-2.03-.86-.8-.86-.63-2.01-1.01 1.43-2.41 2.15-1.4.72-3.05.72m.11-1.89q1.57 0 2.92-.81 1.35-.8 2.08-2.1.7-1.01.81-2.2l1.26-9.1-2.24-.07-1.89-.07q-3.12 0-4.99 2.03t-2.29 5.28q-.11.77-.11 1.54 0 2.42 1.1 3.96 1.11 1.54 3.35 1.54"></path><rect width="17.19" height="18.13" x="-8.6" y="-9.06" fill="none" rx="0" ry="0" transform="translate(346.26 308.5)"></rect><path fill="#fafaf3" d="M363.56 316.92q-3.46 0-5.32-1.79-1.85-1.78-1.85-5.07 0-.53.14-1.79.35-2.8 1.61-4.95 1.26-2.15 3.16-3.34 1.91-1.19 4.19-1.19 2.41 0 3.97 1.33t1.56 3.36q0 .45-.04.7l-1.89-.14q.04-.18.04-.49 0-1.3-.98-2.08-.98-.79-2.63-.79-2.73 0-4.62 2.13-1.89 2.14-2.38 5.71-.1.73-.1 1.36 0 2.52 1.33 3.84 1.33 1.31 3.88 1.31 1.26 0 2.57-.39 1.32-.38 3.03-1.26l.81 1.54q-3.12 2-6.48 2"></path><rect width="14.63" height="18.13" x="-7.32" y="-9.06" fill="none" rx="0" ry="0" transform="translate(364.2 308.36)"></rect><path fill="#fafaf3" d="m378.82 291.3-1.43 10.85q1.01-1.58 2.55-2.47 1.54-.89 3.22-.89 2.1 0 3.4 1.28 1.29 1.27 1.29 3.34 0 2.2-1.14 3.69-1.13 1.49-2.74 2.12l2.31 5.28q.07.25.28.41.21.15.45.15.25 0 .46-.1.21-.11.31-.28l1.37 1.26q-.98 1.08-2.21 1.08-.84 0-1.52-.4t-1-1.14l-2.52-5.74h-5.49l-.95 6.97h-2.03l3.36-25.41Zm1.68 16.48q1.47 0 2.63-.49 1.33-.52 2.06-1.5.74-.98.74-2.31 0-1.23-.79-1.98t-2.19-.75q-1.78 0-3.18 1.19-1.4 1.19-2.31 3.43-.49 1.01-.74 2.48z"></path><rect width="15.72" height="25.72" x="-7.86" y="-12.86" fill="none" rx="0" ry="0" transform="translate(381.79 304.66)"></rect><path fill="#fafaf3" d="M398.6 317.06q-3.4 0-5.18-1.91-1.79-1.91-1.79-5.06 0-.77.11-1.54.31-2.38 1.45-4.58 1.14-2.21 3.06-3.62 1.93-1.42 4.41-1.42 2.38 0 3.97 1.29 1.6 1.3 1.6 3.47 0 2.9-2.35 4.48-2.34 1.57-6.37 1.54l-3.78.03q-.07 2.66 1.17 4.05 1.25 1.38 3.73 1.38 1.58 0 2.94-.46 1.37-.45 2.73-1.36l.91 1.47q-1.43 1.05-3.15 1.64-1.71.6-3.46.6m-.49-9.17q2.59 0 4.21-.89 1.63-.9 1.88-2.82.03-.18.03-.56 0-1.44-1-2.12-.99-.68-2.53-.68-1.93 0-3.42 1.14-1.48 1.13-2.36 2.8-.87 1.66-1.05 3.2z"></path><rect width="14.6" height="18.13" x="-7.3" y="-9.06" fill="none" rx="0" ry="0" transform="translate(399.43 308.5)"></rect><path fill="#fafaf3" d="M417.99 298.86q1.05 0 2.06.31l-.17 1.96q-.95-.24-1.89-.24-1.79 0-2.94.94-1.3.81-2.31 2.45l-1.68 12.43h-2.03l1.61-12.32q.1-.7.1-1.26 0-1.79-.98-2.77l1.51-1.33q.56.39.99 1.18.44.78.55 1.66 1.19-1.65 2.17-2.28 1.29-.73 3.01-.73"></path><rect width="11.02" height="17.85" x="-5.51" y="-8.93" fill="none" rx="0" ry="0" transform="translate(415.04 308.29)"></rect></svg></svg>